<?xml version="1.0" encoding="utf-8"?>
<!-- Generator: Adobe Illustrator 27.5.0, SVG Export Plug-In . SVG Version: 6.00 Build 0)  -->
<svg version="1.1" xmlns="http://www.w3.org/2000/svg" xmlns:xlink="http://www.w3.org/1999/xlink" x="0px" y="0px"
	 width="768" height="608.5" viewBox="136.5 237.5 768 608.5" style="enable-background:new 136.5 237.5 768 608.5;" xml:space="preserve">
<g id="Graphic_Elements">
	<g id="Graphic_Elements_1_">
		<g>
			<g>
				<path d="M427.31,408.037c10.016,12.288,28.067,12.734,41.542,6.339c16.735-7.943,25.815-26.001,33.612-41.789
					c-2.132-0.279-4.265-0.557-6.397-0.836c2.064,6.985,4.127,13.969,6.191,20.954c1.572,5.32,2.717,11.229,5.579,16.052
					c5.208,8.775,15.355,8.504,21.693,1.164c3.349-3.879,5.333-8.547,7.085-13.299c2.504-6.789,4.943-13.603,7.365-20.421
					c5.065-14.258,9.982-28.568,14.767-42.922c-2.292-0.31-4.583-0.62-6.875-0.93c0.185,16.07,0.352,32.141,0.554,48.211
					c0.188,14.938,0.702,29.935,4.845,44.386c0.818,2.854,4.893,3.487,6.397,0.836c9.578-16.876,19.156-33.753,28.734-50.629
					c-2.174-0.589-4.348-1.178-6.522-1.767c0.914,7.528,1.827,15.055,2.741,22.583c0.669,5.509,0.17,13.481,3.815,18.082
					c2.884,3.64,7.225,3.04,10.309,0.086c5.83-5.585,10.965-12.165,16.365-18.168c-1.95-0.515-3.9-1.03-5.85-1.544
					c1.459,5.321,2.693,10.781,4.396,16.028c0.94,2.896,2.347,5.995,5.352,7.209c8.598,3.472,12.193-11.838,14.465-17.096
					c9.063-20.978,17.352-42.278,24.873-63.857c-2.292-0.31-4.583-0.62-6.875-0.931c-0.673,13.996-1.347,27.993-2.02,41.989
					c-0.572,11.894-3.442,26.312,1.019,37.726c3.068,7.851,11.764,14.35,20.448,11.673c4.573-1.409,7.478-5.367,10.078-9.116
					c4.104-5.919,8.122-11.899,12.182-17.848c-2.132-0.899-4.265-1.798-6.397-2.697c-1.561,10.773-1.776,21.488-0.41,32.298
					c0.315,2.489,2.771,4.547,5.266,3.022c7.442-4.549,14.885-9.097,22.327-13.646c-1.755-1.007-3.511-2.015-5.266-3.022
					c-2.079,16.076,1.129,32.174,8.949,46.349c2.177,3.945,8.224,0.418,6.044-3.533c-7.266-13.17-9.919-27.922-7.993-42.816
					c0.349-2.697-3.208-4.28-5.266-3.022c-7.442,4.549-14.885,9.097-22.327,13.646c1.755,1.007,3.511,2.015,5.266,3.022
					c-1.281-10.132-1.306-20.321,0.16-30.437c0.557-3.846-4.044-6.144-6.397-2.697c-2.953,4.327-5.907,8.653-8.86,12.98
					c-2.458,3.6-5.333,9.883-10.015,10.94c-4.157,0.939-8.371-2.274-10.36-5.691c-2.625-4.51-2.621-10.144-2.481-15.201
					c0.587-21.309,2.029-42.628,3.053-63.921c0.199-4.128-5.632-4.496-6.875-0.93c-5.724,16.425-11.877,32.697-18.508,48.777
					c-3.322,8.055-6.724,16.087-10.325,24.022c-0.412,0.972-0.856,1.929-1.332,2.871c0.291,0.841,0.227,0.855-0.192,0.041
					c-1.177-1.085-1.412-4.079-1.81-5.529c-1.14-4.155-2.279-8.311-3.419-12.466c-0.669-2.44-4.062-3.532-5.85-1.545
					c-3.551,3.947-7.102,7.894-10.652,11.841c-1.314,1.46-3.546,5.188-5.326,5.921c-1.526,0.628,0.076,0.709-0.753,0.024
					c-0.862-0.713-0.65-3.359-0.78-4.367c-1.335-10.34-2.513-20.702-3.769-31.051c-0.388-3.2-4.647-5.071-6.522-1.766
					c-9.578,16.876-19.156,33.753-28.734,50.629c2.132,0.279,4.265,0.557,6.397,0.836c-4.147-14.462-4.44-29.417-4.617-44.354
					c-0.183-15.461-0.355-30.922-0.533-46.382c-0.046-4.035-5.639-4.638-6.875-0.93c-7.266,21.796-14.378,43.818-22.812,65.196
					c-1.535,3.891-3.62,8.335-7.155,10.784c-4.871,3.373-8.209-1.474-9.768-5.738c-3.772-10.314-6.334-21.237-9.446-31.77
					c-0.802-2.715-5.012-3.64-6.397-0.836c-6.753,13.674-14.109,29.152-27.62,37.404c-11.274,6.886-27.609,7.587-36.54-3.37
					C429.412,399.594,424.486,404.572,427.31,408.037L427.31,408.037z"/>
			</g>
		</g>
		<g>
			<g>
				<g>
					<path d="M838.765,277.703c5.305-11.898,5.09-22.124-14.352-19.286c-11.727,1.716-20.397,11.664-26.812,21.629
						c-16.127,25.052-24.79,53.925-29.63,83.117c-4.213,25.416,0.382,59.395-9.208,83.012c-2.204,5.428-7.945,9.905-13.662,8.622
						c-2.959-0.664-5.391-2.694-7.751-4.599c-43.923-35.437-104.107-41.254-158.288-47.654c-25.076-2.962-50.493-5.06-75.53-1.782
						c-39.787,5.209-80.647,19.76-110.573,47.129c-25.693,23.498-44.04,53.717-48.035,88.721
						c-5.974,52.334-3.054,105.161-0.173,157.595c0.956,17.394,1.912,34.797,3.701,52.125c0.701,6.793,5.227,15.909,11.465,13.131
						c2.256-1.005,3.552-3.362,4.586-5.605c17.861-38.744,5.574-85.258,18.542-126.039c0.64-2.009,0.979-3.368,3.262-3.538
						c2.937,3.475,3.479,7.639,4,12.134c2.432,21.012,4.863,42.025,7.295,63.037c1.217,10.512-0.439,47.692,11.212,52.974
						c5.913,2.681,10.068-6.164,10.566-12.637c3.678-47.86,1.506-97.919,22.318-142.376c23.982-51.228,70.045-77.098,124.956-83.635
						c19.945-2.374,40.529-1.686,59.59,4.645c24.107,8.007,48.654,25.686,56.48,50.317c18.658,58.722,17.551,122.141,34.457,181.391
						c0.488,1.711,1.05,3.514,2.384,4.692c2.495,2.203,6.688,1.111,8.852-1.419c2.163-2.529,2.806-5.989,3.282-9.283
						c3.407-23.603,1.205-47.552,0.388-71.256c-0.641-18.598,4.123-35.671,8.753-53.703c0.272-1.061,0.599-2.202,1.471-2.865
						c2.467-1.875,5.376,1.729,6.385,4.658c12.071,35.062,11.636,67.952,13.328,104.882c0.34,7.184,2.755,35.233,16.295,25.77
						c6.838-4.779,4.965-27.851,6.06-35.327c3.219-21.981,4.993-44.16,5.555-66.366c1.088-42.991-8.382-85.385-7.868-127.991
						c0.519-43.05,3.832-86.067,9.912-128.689c4.377-30.68,10.658-62.294,28.852-87.382
						C824.418,300.901,833.906,288.6,838.765,277.703z"/>
				</g>
				<g>
					<path d="M218.076,453.681c-0.645-1.413-1.56-2.65-2.795-3.616c-3.105-2.427-7.803-2.739-9.497-6.525
						c-1.556-3.476,0.5-7.517,2.399-10.773c22.901-39.27,24.077-84.819,45.685-124.813c1.171-2.168,2.587-4.513,4.797-5.078
						c3.028-0.774,5.725,2.135,7.685,4.825c7.936,10.891,14.866,22.695,20.645,35.164c5.406,11.664,12.392,25.865,24.155,25.701
						c6.053-0.084,11.373-4.238,16.261-8.224c22.03-17.963,44.061-35.926,66.091-53.889c1.439-1.173,2.981-2.391,4.759-2.534
						c4.057-0.328,6.576,4.717,7.957,8.989c7.226,22.351,10.582,43.54,12.568,67.055c0.325,3.851,0.702,7.872,2.591,11.114
						c3.515,6.03,10.755,7.264,16.759,9.877c6.005,2.613,11.996,10,8.754,16.219c-2.724,5.225-10.665,6.265-11.324,12.266
						c-0.689,6.285,7.756,10.059,7.529,16.386c-0.211,5.875-7.096,7.721-12.347,8.176c-5.251,0.455-12.112,3.418-11.272,9.223
						c3.368-2.728,7.8,3.362,6.229,7.664c-1.572,4.301-5.917,6.271-9.773,8.016c-34.432,15.578-52.941,52.15-93.762,48.23
						c-18.527-1.779-34.161-8.776-51.474-16.085c-2.976-1.256-6.16-2.533-9.268-1.778c-2.942,0.714-5.405,3.174-8.388,3.632
						c-6.195,0.953-10.446-6.595-12.861-13.034c-2.415-6.439-6.266-14.101-12.508-13.692c-5.9,0.386-12.488,7.921-16.427,3.003
						c0-7.052,3.904-13.238,6.336-19.747C219.432,464.477,220.131,458.187,218.076,453.681z"/>
				</g>
				<g>
					<path style="fill:#FFFFFF;" d="M250.53,409.52c-0.083,3.358,0.309,6.838,1.981,9.751c2.698,4.699,8.426,7.11,13.84,6.886
						c9.687-0.401,18.283-9.149,18.515-18.841c0.215-9.023-8.3-19.939-17.684-20.876C255.909,385.312,250.751,400.578,250.53,409.52
						z"/>
				</g>
				<g>
					<path style="fill:#FFFFFF;" d="M327.814,416.099c0.858,3.247,2.207,6.479,4.626,8.809c3.903,3.758,10.077,4.473,15.212,2.746
						c9.19-3.091,15-13.892,12.515-23.263c-2.314-8.724-13.539-16.826-22.811-15.106
						C326.217,391.352,325.529,407.452,327.814,416.099z"/>
				</g>
				<g>
					<g>
						<path style="fill:#FFFFFF;" d="M373.245,446.568c25.941-9.925,53.11-33.772,52.457-63.768c-0.099-4.56-7.197-4.577-7.097,0
							c0.579,26.613-24.249,48.125-47.247,56.924C367.135,441.34,368.969,448.204,373.245,446.568L373.245,446.568z"/>
					</g>
				</g>
				<g>
					<g>
						<path style="fill:#FFFFFF;" d="M212.797,392.114c0.337,18.184,8.297,35.469,22.089,47.368c3.443,2.97,8.484-2.029,5.019-5.019
							c-12.421-10.716-19.706-25.918-20.01-42.349C219.81,387.552,212.712,387.537,212.797,392.114L212.797,392.114z"/>
					</g>
				</g>
				<path style="fill:#DCF2E3;" d="M364.105,436.916c5.423,1.426,10.82,3.029,15.915,5.324c1.083,0.488,2.183,1.03,2.953,1.913
					c1.601,1.837,1.339,4.558,0.821,6.909c-4.388,19.924-20.114,35.429-35.529,49.286c-4.569,4.107-9.23,8.217-14.684,11.141
					c-6.045,3.242-12.863,4.914-19.697,5.906c-22.231,3.228-47.52-1.764-61.155-19.077c-3.828-4.86-6.551-10.435-9.246-15.966
					c-7.023-14.412-30.268-45.571-1.811-49.249c26.018-3.362,51.38-6.202,77.686-3.926
					C334.468,430.487,349.463,433.068,364.105,436.916z"/>
				<g>
					<g>
						<path style="fill:#92CFA3;" d="M229.349,453.685c11.507-5.25,26.133-4.666,38.551-5.6c12.541-0.943,25.112-1.621,37.692-1.578
							c25.288,0.088,50.803,3.283,74.13,13.525c4.143,1.819,7.759-4.294,3.582-6.128c-24.541-10.774-51.074-14.39-77.712-14.494
							c-13.777-0.054-27.544,0.769-41.273,1.854c-12.792,1.011-26.694,0.883-38.553,6.293
							C221.617,449.45,225.22,455.569,229.349,453.685L229.349,453.685z"/>
					</g>
				</g>
				<g>
					<g>
						<path style="fill:#92CFA3;" d="M234.26,475.745c44.591-8.038,90.516-6.728,134.595,3.734c4.441,1.054,6.336-5.788,1.887-6.844
							c-45.374-10.77-92.48-12.006-138.368-3.734C227.885,469.71,229.786,476.552,234.26,475.745L234.26,475.745z"/>
					</g>
				</g>
				<g>
					<g>
						<path style="fill:#92CFA3;" d="M251.759,499.508c17.591-3.253,35.406-5.064,53.296-5.307
							c16.801-0.228,34.735-0.191,50.269,7.024c4.116,1.912,7.725-4.204,3.582-6.128c-16.216-7.532-34.305-8.15-51.902-8.014
							c-19.173,0.148-38.284,2.096-57.132,5.581C245.387,493.493,247.287,500.335,251.759,499.508L251.759,499.508z"/>
					</g>
				</g>
				<g>
					<g>
						<path d="M265.918,411.964c4.567,0,4.574-7.097,0-7.097C261.352,404.867,261.344,411.964,265.918,411.964L265.918,411.964z"/>
					</g>
				</g>
				<g>
					<g>
						<path d="M342.464,414.09c4.567,0,4.574-7.097,0-7.097C337.897,406.993,337.889,414.09,342.464,414.09L342.464,414.09z"/>
					</g>
				</g>
			</g>
			<g>
				<g>
					<path d="M762.09,664.782c-112.01-6.663-224.421-6.22-336.37,1.433c-26.464,1.809-52.883,4.157-79.309,6.442
						c-24.209,2.093-48.591,4.449-72.228,10.322c-20.074,4.988-45.135,12.705-55.879,32.114c-8.635,15.6-7.031,36.993,3.384,51.384
						c13.177,18.208,37.413,20.049,57.85,22.884c27.584,3.827,55.225,7.421,83.012,9.415c27.337,1.962,54.772,2.294,82.097-0.032
						c27.22-2.317,54.199-6.744,81.349-9.697c13.67-1.487,27.393-2.605,41.146-2.869c11.94-0.229,24.981-0.798,36.631,2.281
						c4.843,1.28,9.617,3.445,12.653,7.6c3.39,4.639,4.18,10.658,7.179,15.533c4.569,7.428,12.48,11.592,20.891,13.083
						c9.186,1.628,18.489,0.828,27.66-0.458c13.878-1.945,27.737-4.04,41.593-6.132c23.612-3.565,47.294-7.085,70.486-12.874
						c21.776-5.435,43.263-12.928,62.687-24.318c17.79-10.432,39.546-24.938,37.179-48.327
						c-2.068-20.432-17.561-37.231-34.554-47.344c-17.328-10.313-37.397-14.989-57.192-17.654
						C782.308,666.215,772.206,665.398,762.09,664.782c-4.562-0.278-4.546,6.821,0,7.097c36.901,2.246,83.201,6.829,106.448,39.847
						c6.222,8.837,10.611,20.453,7.884,31.312c-2.777,11.057-13.378,18.576-22.225,24.766
						c-17.927,12.542-38.257,21.034-59.181,27.145c-21.086,6.158-42.762,10.021-64.437,13.426
						c-12.352,1.941-24.721,3.782-37.09,5.611c-11.412,1.687-22.938,3.982-34.483,4.453c-8.712,0.355-18.928-0.212-25.797-6.288
						c-7.413-6.558-7.138-17.835-14.904-24.364c-6.871-5.776-16.164-7.343-24.84-8.054c-12.556-1.03-25.242-0.885-37.813-0.243
						c-51.557,2.63-102.101,14.163-153.899,13.805c-26.194-0.181-52.333-2.35-78.341-5.353c-13.368-1.544-26.709-3.311-40.039-5.154
						c-11.119-1.537-22.513-2.636-33.312-5.834c-9.93-2.941-19.018-8.199-24.381-17.319c-4.645-7.898-6.473-17.424-5.583-26.511
						c2.227-22.73,23.3-33.351,42.827-39.59c22.492-7.186,46.093-10.244,69.516-12.51c24.488-2.369,49.028-4.425,73.559-6.287
						c105.283-7.994,211.048-9.641,316.529-4.924c13.192,0.59,26.38,1.284,39.562,2.069
						C766.653,672.151,766.637,665.052,762.09,664.782z"/>
				</g>
			</g>
		</g>
		<g>
			<g>
				<path d="M391.999,277.859c11.966,0.693,23.407-3.724,31.917-12.138c-1.95-1.135-3.9-2.27-5.85-3.405
					c-2.463,8.365-0.171,18.498,7.89,22.992c7.157,3.99,16.001,1.84,20.754-4.627c2.356-3.205-2.842-7.154-5.497-4.241
					c-4.915,5.391-5.132,13.461-0.684,19.281c4.902,6.414,13.321,7.668,20.815,6.447c4.435-0.723,2.553-7.469-1.861-6.75
					c-4.151,0.676-8.81,0.237-12.097-2.626c-3.291-2.866-4.329-7.995-1.224-11.401c-1.832-1.414-3.665-2.828-5.497-4.241
					c-2.837,3.86-8.79,4.072-12.413,1.28c-4.351-3.352-4.884-9.335-3.437-14.251c0.999-3.393-3.4-5.827-5.85-3.405
					c-7.272,7.189-16.777,10.678-26.968,10.088C387.498,270.599,387.513,277.6,391.999,277.859L391.999,277.859z"/>
			</g>
		</g>
		<g>
			<g>
				<path d="M172.452,390.253c-1.037,9.798-6.136,18.812-14.025,24.724c-2.868,2.149-1.785,6.105,1.766,6.522
					c11.691,1.372,10.357,16.957,8.991,25.078c-0.741,4.406,6.003,6.3,6.75,1.861c2.255-13.406,1.4-31.928-15.741-33.939
					c0.589,2.174,1.178,4.348,1.766,6.522c10.066-7.544,16.168-18.253,17.493-30.769
					C179.925,385.778,172.921,385.811,172.452,390.253L172.452,390.253z"/>
			</g>
		</g>
	</g>
</g>
</svg>


